<svg xmlns="http://www.w3.org/2000/svg" viewBox="0 0 512 512" role="img" aria-labelledby="title">
  <title id="title">Ícone de aplicativo Bacco Adega CRM</title>
  <defs>
    <linearGradient id="bg" x1="0" y1="0" x2="1" y2="1"><stop offset="0" stop-color="#5A1024"/><stop offset="1" stop-color="#320913"/></linearGradient>
    <style>.serif{font-family:'Playfair Display','Cormorant Garamond',Georgia,'Times New Roman',serif}</style>
  </defs>
  <rect x="20" y="20" width="472" height="472" rx="108" fill="url(#bg)"/>
  <path d="M114 154 C92 99 135 68 191 72 C231 75 259 92 284 119 C263 135 239 128 219 111 C199 94 175 92 153 101 C130 111 118 129 114 154Z" fill="#C49A4A"/>
  <text x="151" y="374" class="serif" font-size="320" font-weight="600" fill="#F5F0E6">B</text>
  <circle cx="132" cy="225" r="19" fill="#C49A4A"/><circle cx="173" cy="225" r="19" fill="#C49A4A"/>
  <circle cx="153" cy="264" r="19" fill="#C49A4A"/><circle cx="194" cy="264" r="19" fill="#C49A4A"/>
  <circle cx="173" cy="303" r="19" fill="#C49A4A"/><circle cx="173" cy="340" r="17" fill="#C49A4A"/>
</svg>
